# xmcd
#
# Track frame offsets: 
#        150
#        20391
#        40404
#        65748
#        88744
#        115701
#        143375
#        161504
#        183639
#        201853
#
# Disc length: 3115 seconds
#
# Revision: 5
# Processed by: cddbd v1.5.2PL0 Copyright (c) Steve Scherf et al.
# Submitted via: ExactAudioCopy v0.95b2
#
DISCID=850c290a
DTITLE=Various Artist - Bossa Brava: Tropicale!
DYEAR=2000
DGENRE=Latin
TTITLE0=Sambada - Latin Eyes
TTITLE1=Soundscape UK - Terra Mia
TTITLE2=Afterlife - Never Before
TTITLE3=Boozoo Bajou - Night Over Manaus
TTITLE4=New Cool Collective - Flootie
TTITLE5=Moodorama - Mango Mondo
TTITLE6=Amore Hirosuke and Love Machine - Love Bossa Style
TTITLE7=Cycle - Quiet Blue
TTITLE8=Ultralights - Orbit Lounge
TTITLE9=Moodorama - Sinzig Sunset Boulevard
EXTD=YEAR: 2000
EXTT0=
EXTT1=
EXTT2=
EXTT3=
EXTT4=
EXTT5=
EXTT6=
EXTT7=
EXTT8=
EXTT9=
PLAYORDER=
